<svg width="512" height="512" viewBox="0 0 512 512" fill="none" xmlns="http://www.w3.org/2000/svg">
  <defs>
    <linearGradient id="background" x1="72" y1="56" x2="440" y2="456" gradientUnits="userSpaceOnUse">
      <stop stop-color="#39D8C7"/>
      <stop offset="0.48" stop-color="#6D7CFF"/>
      <stop offset="1" stop-color="#FF9468"/>
    </linearGradient>
    <linearGradient id="ribbonA" x1="110" y1="147" x2="405" y2="357" gradientUnits="userSpaceOnUse">
      <stop stop-color="#FFFFFF"/>
      <stop offset="1" stop-color="#FFF0B8"/>
    </linearGradient>
    <linearGradient id="ribbonB" x1="101" y1="365" x2="398" y2="145" gradientUnits="userSpaceOnUse">
      <stop stop-color="#EAFDFF"/>
      <stop offset="1" stop-color="#FFFFFF"/>
    </linearGradient>
    <filter id="softShadow" x="-16" y="-16" width="544" height="544" filterUnits="userSpaceOnUse" color-interpolation-filters="sRGB">
      <feFlood flood-opacity="0" result="BackgroundImageFix"/>
      <feColorMatrix in="SourceAlpha" type="matrix" values="0 0 0 0 0 0 0 0 0 0 0 0 0 0 0 0 0 0 127 0" result="hardAlpha"/>
      <feOffset dy="14"/>
      <feGaussianBlur stdDeviation="16"/>
      <feComposite in2="hardAlpha" operator="out"/>
      <feColorMatrix type="matrix" values="0 0 0 0 0.09 0 0 0 0 0.08 0 0 0 0 0.2 0 0 0 0.22 0"/>
      <feBlend mode="normal" in2="BackgroundImageFix" result="effect1_dropShadow"/>
      <feBlend mode="normal" in="SourceGraphic" in2="effect1_dropShadow" result="shape"/>
    </filter>
    <clipPath id="appClip">
      <rect width="512" height="512"/>
    </clipPath>
  </defs>

  <g filter="url(#softShadow)">
    <rect width="512" height="512" fill="url(#background)"/>
  </g>

  <g clip-path="url(#appClip)">
    <circle cx="411" cy="98" r="141" fill="#FFFFFF" opacity="0.16"/>
    <circle cx="96" cy="426" r="155" fill="#180D38" opacity="0.14"/>
    <path d="M111 174C185 174 201 254 256 254C311 254 329 174 401 174" stroke="url(#ribbonA)" stroke-width="38" stroke-linecap="round"/>
    <path d="M111 338C185 338 201 258 256 258C311 258 329 338 401 338" stroke="url(#ribbonB)" stroke-width="38" stroke-linecap="round"/>
    <path d="M146 256H258C302 256 334 223 362 191" stroke="#FFFFFF" stroke-width="28" stroke-linecap="round" opacity="0.9"/>
    <path d="M146 256H258C302 256 334 289 362 321" stroke="#FFFFFF" stroke-width="28" stroke-linecap="round" opacity="0.9"/>
  </g>

  <circle cx="111" cy="174" r="35" fill="#FFFFFF"/>
  <circle cx="111" cy="338" r="35" fill="#FFFFFF"/>
  <circle cx="401" cy="256" r="45" fill="#FFFFFF"/>
  <circle cx="111" cy="174" r="15" fill="#35CFC4"/>
  <circle cx="111" cy="338" r="15" fill="#FF9569"/>
  <circle cx="401" cy="256" r="20" fill="#687DFF"/>
</svg>
